<svg width="30" height="30" viewBox="0 0 30 30" fill="none" xmlns="http://www.w3.org/2000/svg">
<path d="M15 3.75C14.0536 3.75 13.2301 4.27584 12.8056 5.05129C12.4741 5.65685 11.9404 6.25 11.25 6.25H10C7.92893 6.25 6.25 7.92893 6.25 10V22.5C6.25 24.5711 7.92893 26.25 10 26.25H20C22.0711 26.25 23.75 24.5711 23.75 22.5V10C23.75 7.92893 22.0711 6.25 20 6.25H18.75C18.0596 6.25 17.5259 5.65685 17.1944 5.05129C16.7699 4.27584 15.9464 3.75 15 3.75Z" stroke="#4A4B57" stroke-width="3" stroke-linecap="round" stroke-linejoin="round"/>
<path d="M13.75 8.75H16.25" stroke="#4A4B57" stroke-width="3" stroke-linecap="round" stroke-linejoin="round"/>
</svg>
