<svg width="30" height="30" viewBox="0 0 30 30" fill="none" xmlns="http://www.w3.org/2000/svg">
<path d="M11.5633 26.4583H18.4383C24.1675 26.4583 26.4591 24.1666 26.4591 18.4375V11.5625C26.4591 5.83329 24.1675 3.54163 18.4383 3.54163H11.5633C5.83415 3.54163 3.54248 5.83329 3.54248 11.5625V18.4375C3.54248 24.1666 5.83415 26.4583 11.5633 26.4583Z" stroke="white" stroke-width="3" stroke-linecap="round" stroke-linejoin="round"/>
<path d="M11.5617 12.7083C12.8273 12.7083 13.8534 11.6823 13.8534 10.4167C13.8534 9.15101 12.8273 8.125 11.5617 8.125C10.296 8.125 9.27002 9.15101 9.27002 10.4167C9.27002 11.6823 10.296 12.7083 11.5617 12.7083Z" stroke="white" stroke-width="3" stroke-linecap="round" stroke-linejoin="round"/>
<path d="M4.30957 22.9635L9.95853 19.1708C10.8637 18.5635 12.17 18.6322 12.9835 19.3312L13.3617 19.6635C14.2554 20.4312 15.6992 20.4312 16.5929 19.6635L21.3596 15.5729C22.2533 14.8051 23.6971 14.8051 24.5908 15.5729L26.4585 17.177" stroke="white" stroke-width="3" stroke-linecap="round" stroke-linejoin="round"/>
</svg>
