<svg width="20" height="20" viewBox="0 0 20 20" fill="none" xmlns="http://www.w3.org/2000/svg">
<path fill-rule="evenodd" clip-rule="evenodd" d="M17.5 6.78571V13.2143C17.5 15.5812 15.5812 17.5 13.2143 17.5H6.78571C4.41878 17.5 2.5 15.5812 2.5 13.2143V6.78571C2.5 4.41878 4.41878 2.5 6.78571 2.5H13.2143C15.5812 2.5 17.5 4.41878 17.5 6.78571Z" stroke="white" stroke-width="1.5" stroke-linecap="round" stroke-linejoin="round"/>
<path fill-rule="evenodd" clip-rule="evenodd" d="M9.35686 10.1253L11.3926 11.6596C11.5258 11.7543 11.605 11.9076 11.605 12.0711C11.605 12.2345 11.5258 12.3878 11.3926 12.4825L9.35686 14.1604C9.18501 14.2944 8.95387 14.3246 8.75337 14.239C8.55288 14.1535 8.41469 13.9658 8.39258 13.7489V10.5346C8.41538 10.3182 8.55384 10.1311 8.75421 10.0461C8.95458 9.96101 9.18531 9.99137 9.35686 10.1253V10.1253Z" stroke="white" stroke-width="1.5" stroke-linecap="round" stroke-linejoin="round"/>
<path d="M17.5 7.53571C17.9142 7.53571 18.25 7.19993 18.25 6.78571C18.25 6.3715 17.9142 6.03571 17.5 6.03571V7.53571ZM10 6.03571C9.58579 6.03571 9.25 6.3715 9.25 6.78571C9.25 7.19993 9.58579 7.53571 10 7.53571V6.03571ZM2.5 6.03571C2.08579 6.03571 1.75 6.3715 1.75 6.78571C1.75 7.19993 2.08579 7.53571 2.5 7.53571V6.03571ZM10 7.53571C10.4142 7.53571 10.75 7.19993 10.75 6.78571C10.75 6.3715 10.4142 6.03571 10 6.03571V7.53571ZM9.24989 6.78571C9.24989 7.19993 9.58568 7.53571 9.99989 7.53571C10.4141 7.53571 10.7499 7.19993 10.7499 6.78571H9.24989ZM10.7499 2.5C10.7499 2.08579 10.4141 1.75 9.99989 1.75C9.58568 1.75 9.24989 2.08579 9.24989 2.5H10.7499ZM17.5 6.03571H10V7.53571H17.5V6.03571ZM2.5 7.53571H10V6.03571H2.5V7.53571ZM10.7499 6.78571V2.5H9.24989V6.78571H10.7499Z" fill="white"/>
</svg>
