<svg width="30" height="30" viewBox="0 0 30 30" fill="none" xmlns="http://www.w3.org/2000/svg">
<path d="M15.6252 18.5677C18.2726 18.5677 20.4168 16.4235 20.4168 13.7761V7.18754C20.4168 4.54014 18.2726 2.39587 15.6252 2.39587C12.9778 2.39587 10.8335 4.54014 10.8335 7.18754V13.7761C10.8335 16.4235 12.9778 18.5677 15.6252 18.5677Z" stroke="white" stroke-width="3" stroke-linecap="round" stroke-linejoin="round"/>
<path d="M6.46094 11.5599V13.5964C6.46094 18.6516 10.5698 22.7605 15.625 22.7605C20.6802 22.7605 24.7891 18.6516 24.7891 13.5964V11.5599" stroke="white" stroke-width="3" stroke-linecap="round" stroke-linejoin="round"/>
<path d="M14.667 11.2422C15.3019 11.0745 15.9607 11.0745 16.5956 11.2422" stroke="white" stroke-width="3" stroke-linecap="round" stroke-linejoin="round"/>
<path d="M14.6699 7.12578C15.3048 6.95807 15.9637 6.95807 16.5986 7.12578" stroke="white" stroke-width="3" stroke-linecap="round" stroke-linejoin="round"/>
<path d="M15.625 22.7604V26.3541" stroke="white" stroke-width="3" stroke-linecap="round" stroke-linejoin="round"/>
</svg>
