<svg width="20" height="25" viewBox="0 0 20 25" fill="none" xmlns="http://www.w3.org/2000/svg">
<path fill-rule="evenodd" clip-rule="evenodd" d="M18.5194 20.372C18.4725 18.9798 17.314 17.8846 15.9213 17.9159C14.5287 17.9472 13.4205 19.0933 13.4362 20.4862C13.4519 21.8791 14.5855 23.0001 15.9785 23C17.4055 22.9754 18.5428 21.7991 18.5194 20.372Z" stroke="black" stroke-width="2.3" stroke-linecap="round" stroke-linejoin="round"/>
<path fill-rule="evenodd" clip-rule="evenodd" d="M9.62467 12.4881C9.6598 14.6293 7.95304 16.3939 5.81185 16.43C3.67125 16.393 1.9654 14.6287 2.00053 12.4881C1.9654 10.3474 3.67125 8.58312 5.81185 8.54611C7.95304 8.5823 9.6598 10.3469 9.62467 12.4881Z" stroke="black" stroke-width="2.3" stroke-linecap="round" stroke-linejoin="round"/>
<path fill-rule="evenodd" clip-rule="evenodd" d="M17.2491 4.60416C17.2715 5.52693 16.792 6.38936 15.9964 6.85734C15.2008 7.32532 14.214 7.32532 13.4184 6.85734C12.6228 6.38936 12.1434 5.52693 12.1658 4.60416C12.1434 3.6814 12.6228 2.81896 13.4184 2.35098C14.214 1.88301 15.2008 1.88301 15.9964 2.35098C16.792 2.81896 17.2715 3.6814 17.2491 4.60416Z" stroke="black" stroke-width="2.3" stroke-linecap="round" stroke-linejoin="round"/>
<path d="M13.4064 19.5713C13.9246 19.9386 14.6424 19.8163 15.0097 19.2981C15.377 18.78 15.2547 18.0622 14.7365 17.6949L13.4064 19.5713ZM9.48056 13.9691C8.96241 13.6019 8.24461 13.7241 7.87732 14.2423C7.51002 14.7604 7.63232 15.4782 8.15047 15.8455L9.48056 13.9691ZM13.5808 7.18718C14.0445 6.75313 14.0685 6.02539 13.6345 5.56172C13.2004 5.09805 12.4727 5.07405 12.009 5.5081L13.5808 7.18718ZM8.03549 9.22781C7.57183 9.66186 7.54782 10.3896 7.98187 10.8533C8.41592 11.3169 9.14367 11.3409 9.60733 10.9069L8.03549 9.22781ZM14.7365 17.6949L9.48056 13.9691L8.15047 15.8455L13.4064 19.5713L14.7365 17.6949ZM12.009 5.5081L8.03549 9.22781L9.60733 10.9069L13.5808 7.18718L12.009 5.5081Z" fill="black"/>
</svg>
