<svg width="19" height="23" viewBox="0 0 19 23" fill="none" xmlns="http://www.w3.org/2000/svg">
<path fill-rule="evenodd" clip-rule="evenodd" d="M17.5194 19.372C17.4725 17.9798 16.314 16.8846 14.9213 16.9159C13.5287 16.9472 12.4205 18.0933 12.4362 19.4862C12.4519 20.8791 13.5855 22.0001 14.9785 22C16.4055 21.9754 17.5428 20.7991 17.5194 19.372Z" stroke="black" stroke-width="2" stroke-linecap="round" stroke-linejoin="round"/>
<path fill-rule="evenodd" clip-rule="evenodd" d="M8.62467 11.4881C8.6598 13.6293 6.95304 15.3939 4.81185 15.43C2.67125 15.393 0.965401 13.6287 1.00053 11.4881C0.965401 9.34744 2.67125 7.58312 4.81185 7.54611C6.95304 7.5823 8.6598 9.34686 8.62467 11.4881Z" stroke="black" stroke-width="2" stroke-linecap="round" stroke-linejoin="round"/>
<path fill-rule="evenodd" clip-rule="evenodd" d="M16.2491 3.60416C16.2715 4.52693 15.792 5.38936 14.9964 5.85734C14.2008 6.32532 13.214 6.32532 12.4184 5.85734C11.6228 5.38936 11.1434 4.52693 11.1658 3.60416C11.1434 2.6814 11.6228 1.81896 12.4184 1.35098C13.214 0.883005 14.2008 0.883005 14.9964 1.35098C15.792 1.81896 16.2715 2.6814 16.2491 3.60416Z" stroke="black" stroke-width="2" stroke-linecap="round" stroke-linejoin="round"/>
<path d="M12.4932 18.4489C12.9437 18.7683 13.5679 18.6619 13.8873 18.2114C14.2067 17.7608 14.1003 17.1366 13.6498 16.8172L12.4932 18.4489ZM8.39382 13.0915C7.94325 12.7721 7.31908 12.8785 6.99969 13.329C6.68031 13.7796 6.78665 14.4038 7.23721 14.7232L8.39382 13.0915ZM12.4783 6.07768C12.8815 5.70024 12.9024 5.06742 12.5249 4.66423C12.1475 4.26104 11.5147 4.24017 11.1115 4.6176L12.4783 6.07768ZM7.138 8.33732C6.73481 8.71475 6.71394 9.34757 7.09138 9.75076C7.46881 10.1539 8.10163 10.1748 8.50482 9.79739L7.138 8.33732ZM13.6498 16.8172L8.39382 13.0915L7.23721 14.7232L12.4932 18.4489L13.6498 16.8172ZM11.1115 4.6176L7.138 8.33732L8.50482 9.79739L12.4783 6.07768L11.1115 4.6176Z" fill="black"/>
</svg>
