<svg width="20" height="25" viewBox="0 0 20 25" fill="none" xmlns="http://www.w3.org/2000/svg">
<path fill-rule="evenodd" clip-rule="evenodd" d="M18.5194 20.372C18.4725 18.9798 17.314 17.8846 15.9213 17.9159C14.5287 17.9472 13.4205 19.0933 13.4362 20.4862C13.4519 21.8791 14.5855 23.0001 15.9785 23C17.4055 22.9754 18.5428 21.7991 18.5194 20.372Z" stroke="black" stroke-width="2.1" stroke-linecap="round" stroke-linejoin="round"/>
<path fill-rule="evenodd" clip-rule="evenodd" d="M9.62467 12.4881C9.6598 14.6293 7.95304 16.3939 5.81185 16.43C3.67125 16.393 1.9654 14.6287 2.00053 12.4881C1.9654 10.3474 3.67125 8.58312 5.81185 8.54611C7.95304 8.5823 9.6598 10.3469 9.62467 12.4881Z" stroke="black" stroke-width="2.1" stroke-linecap="round" stroke-linejoin="round"/>
<path fill-rule="evenodd" clip-rule="evenodd" d="M17.2491 4.60416C17.2715 5.52693 16.792 6.38936 15.9964 6.85734C15.2008 7.32532 14.214 7.32532 13.4184 6.85734C12.6228 6.38936 12.1434 5.52693 12.1658 4.60416C12.1434 3.6814 12.6228 2.81896 13.4184 2.35098C14.214 1.88301 15.2008 1.88301 15.9964 2.35098C16.792 2.81896 17.2715 3.6814 17.2491 4.60416Z" stroke="black" stroke-width="2.1" stroke-linecap="round" stroke-linejoin="round"/>
<path d="M13.4643 19.4897C13.9373 19.825 14.5927 19.7134 14.9281 19.2403C15.2634 18.7672 15.1518 18.1118 14.6787 17.7765L13.4643 19.4897ZM9.42273 14.0507C8.94964 13.7154 8.29426 13.827 7.9589 14.3001C7.62354 14.7732 7.7352 15.4286 8.2083 15.764L9.42273 14.0507ZM13.5125 7.11418C13.9358 6.71787 13.9578 6.05341 13.5614 5.63006C13.1651 5.20671 12.5007 5.18479 12.0773 5.5811L13.5125 7.11418ZM8.10383 9.30082C7.68049 9.69712 7.65857 10.3616 8.05487 10.7849C8.45118 11.2083 9.11564 11.2302 9.53899 10.8339L8.10383 9.30082ZM14.6787 17.7765L9.42273 14.0507L8.2083 15.764L13.4643 19.4897L14.6787 17.7765ZM12.0773 5.5811L8.10383 9.30082L9.53899 10.8339L13.5125 7.11418L12.0773 5.5811Z" fill="black"/>
</svg>
