<svg width="30" height="30" viewBox="0 0 30 30" fill="none" xmlns="http://www.w3.org/2000/svg">
<path fill-rule="evenodd" clip-rule="evenodd" d="M18.2261 24.255C18.3305 24.9867 17.8255 25.6657 17.0948 25.7763L14.9998 26.23C14.5382 26.3984 14.0209 26.283 13.6745 25.9346C13.3282 25.5862 13.2159 25.0682 13.387 24.6076C13.558 24.147 13.9812 23.8279 14.4711 23.79L16.5648 23.3375C17.2765 23.1362 18.0175 23.5455 18.2261 24.255V24.255Z" stroke="white" stroke-width="3" stroke-linecap="round" stroke-linejoin="round"/>
<path fill-rule="evenodd" clip-rule="evenodd" d="M8.75 19.99C7.36929 19.99 6.25 18.8707 6.25 17.49V13.74C6.25 12.3593 7.36929 11.24 8.75 11.24C10.1307 11.24 11.25 12.3593 11.25 13.74V17.49C11.25 18.8707 10.1307 19.99 8.75 19.99Z" stroke="white" stroke-width="3" stroke-linecap="round" stroke-linejoin="round"/>
<path fill-rule="evenodd" clip-rule="evenodd" d="M21.25 19.99C19.8693 19.99 18.75 18.8707 18.75 17.49V13.74C18.75 12.3593 19.8693 11.24 21.25 11.24C22.6307 11.24 23.75 12.3593 23.75 13.74V17.49C23.75 18.8707 22.6307 19.99 21.25 19.99Z" stroke="white" stroke-width="3" stroke-linecap="round" stroke-linejoin="round"/>
<path d="M22.25 13.75C22.25 14.5784 22.9216 15.25 23.75 15.25C24.5784 15.25 25.25 14.5784 25.25 13.75H22.25ZM4.75 13.75C4.75 14.5784 5.42157 15.25 6.25 15.25C7.07843 15.25 7.75 14.5784 7.75 13.75H4.75ZM25.25 17.5046C25.2525 16.6761 24.583 16.0025 23.7546 16C22.9261 15.9975 22.2525 16.667 22.25 17.4954L25.25 17.5046ZM16.7663 24.3199C15.9579 24.5008 15.4491 25.3027 15.6299 26.1112C15.8108 26.9196 16.6127 27.4284 17.4212 27.2476L16.7663 24.3199ZM25.25 13.75V11.25H22.25V13.75H25.25ZM25.25 11.25C25.25 5.58908 20.6609 1 15 1V4C19.0041 4 22.25 7.24594 22.25 11.25H25.25ZM15 1C9.33908 1 4.75 5.58908 4.75 11.25H7.75C7.75 7.24594 10.9959 4 15 4V1ZM4.75 11.25V13.75H7.75V11.25H4.75ZM22.25 17.4954C22.24 20.7717 19.9636 23.6048 16.7663 24.3199L17.4212 27.2476C21.9858 26.2266 25.2358 22.1819 25.25 17.5046L22.25 17.4954Z" fill="white"/>
</svg>
