<svg width="17" height="19" viewBox="0 0 17 19" fill="none" xmlns="http://www.w3.org/2000/svg">
<path d="M5.28572 3.89286C5.69993 3.89286 6.03572 3.55707 6.03572 3.14286C6.03572 2.72864 5.69993 2.39286 5.28572 2.39286V3.89286ZM11.7143 2.39286C11.3001 2.39286 10.9643 2.72864 10.9643 3.14286C10.9643 3.55707 11.3001 3.89286 11.7143 3.89286V2.39286ZM5.28571 2.39286C4.8715 2.39286 4.53571 2.72864 4.53571 3.14286C4.53571 3.55707 4.8715 3.89286 5.28571 3.89286V2.39286ZM11.7143 3.89286C12.1285 3.89286 12.4643 3.55707 12.4643 3.14286C12.4643 2.72864 12.1285 2.39286 11.7143 2.39286V3.89286ZM6.03572 3.14286C6.03572 2.72864 5.69993 2.39286 5.28572 2.39286C4.8715 2.39286 4.53572 2.72864 4.53572 3.14286L6.03572 3.14286ZM4.53572 4.21429C4.53572 4.6285 4.8715 4.96429 5.28572 4.96429C5.69993 4.96429 6.03572 4.6285 6.03572 4.21429L4.53572 4.21429ZM4.53572 3.14286C4.53572 3.55707 4.8715 3.89286 5.28572 3.89286C5.69993 3.89286 6.03572 3.55707 6.03572 3.14286L4.53572 3.14286ZM6.03572 1C6.03572 0.585786 5.69993 0.25 5.28572 0.25C4.8715 0.25 4.53572 0.585786 4.53572 1H6.03572ZM12.4643 3.14286C12.4643 2.72864 12.1285 2.39286 11.7143 2.39286C11.3001 2.39286 10.9643 2.72864 10.9643 3.14286L12.4643 3.14286ZM10.9643 4.21429C10.9643 4.6285 11.3001 4.96429 11.7143 4.96429C12.1285 4.96429 12.4643 4.6285 12.4643 4.21429H10.9643ZM10.9643 3.14286C10.9643 3.55707 11.3001 3.89286 11.7143 3.89286C12.1285 3.89286 12.4643 3.55707 12.4643 3.14286L10.9643 3.14286ZM12.4643 1C12.4643 0.585786 12.1285 0.25 11.7143 0.25C11.3001 0.25 10.9643 0.585786 10.9643 1H12.4643ZM5.28572 2.39286C2.50457 2.39286 0.250002 4.64742 0.250002 7.42857H1.75C1.75 5.47585 3.333 3.89286 5.28572 3.89286V2.39286ZM0.250002 7.42857V13.8571L1.75 13.8571V7.42857H0.250002ZM0.250002 13.8571C0.250002 16.6383 2.50457 18.8929 5.28572 18.8929V17.3929C3.333 17.3929 1.75 15.8099 1.75 13.8571L0.250002 13.8571ZM5.28572 18.8929H11.7143V17.3929H5.28572V18.8929ZM11.7143 18.8929C14.4954 18.8929 16.75 16.6383 16.75 13.8571H15.25C15.25 15.8099 13.667 17.3929 11.7143 17.3929V18.8929ZM16.75 13.8571V7.42857H15.25V13.8571H16.75ZM16.75 7.42857C16.75 4.64742 14.4954 2.39286 11.7143 2.39286V3.89286C13.667 3.89286 15.25 5.47585 15.25 7.42857H16.75ZM5.28571 3.89286H11.7143V2.39286L5.28571 2.39286V3.89286ZM4.53572 3.14286V4.21429L6.03572 4.21429V3.14286L4.53572 3.14286ZM6.03572 3.14286V1H4.53572V3.14286L6.03572 3.14286ZM10.9643 3.14286V4.21429H12.4643V3.14286L10.9643 3.14286ZM12.4643 3.14286V1H10.9643V3.14286L12.4643 3.14286Z" fill="white"/>
<path d="M4.21436 10.6429L6.35721 13.8571L12.7858 8.5" stroke="white" stroke-width="1.5" stroke-linecap="round" stroke-linejoin="round"/>
</svg>
