<svg width="30" height="30" viewBox="0 0 30 30" fill="none" xmlns="http://www.w3.org/2000/svg">
<path fill-rule="evenodd" clip-rule="evenodd" d="M26.25 10.1786V19.8214C26.25 23.3718 23.3718 26.25 19.8214 26.25H10.1786C6.62817 26.25 3.75 23.3718 3.75 19.8214V10.1786C3.75 6.62817 6.62817 3.75 10.1786 3.75H19.8214C23.3718 3.75 26.25 6.62817 26.25 10.1786Z" stroke="white" stroke-width="3" stroke-linecap="round" stroke-linejoin="round"/>
<path fill-rule="evenodd" clip-rule="evenodd" d="M14.0353 15.188L17.0889 17.4895C17.2888 17.6314 17.4075 17.8614 17.4075 18.1066C17.4075 18.3518 17.2888 18.5818 17.0889 18.7238L14.0353 21.2405C13.7775 21.4417 13.4308 21.4869 13.1301 21.3586C12.8293 21.2303 12.622 20.9487 12.5889 20.6234V15.802C12.6231 15.4773 12.8308 15.1967 13.1313 15.0691C13.4319 14.9415 13.778 14.9871 14.0353 15.188V15.188Z" stroke="white" stroke-width="3" stroke-linecap="round" stroke-linejoin="round"/>
<path d="M26.25 11.6786C27.0784 11.6786 27.75 11.007 27.75 10.1786C27.75 9.35014 27.0784 8.67857 26.25 8.67857V11.6786ZM15 8.67857C14.1716 8.67857 13.5 9.35014 13.5 10.1786C13.5 11.007 14.1716 11.6786 15 11.6786V8.67857ZM3.75 8.67857C2.92157 8.67857 2.25 9.35014 2.25 10.1786C2.25 11.007 2.92157 11.6786 3.75 11.6786V8.67857ZM15 11.6786C15.8284 11.6786 16.5 11.007 16.5 10.1786C16.5 9.35014 15.8284 8.67857 15 8.67857V11.6786ZM13.4998 10.1786C13.4998 11.007 14.1714 11.6786 14.9998 11.6786C15.8283 11.6786 16.4998 11.007 16.4998 10.1786H13.4998ZM16.4998 3.75C16.4998 2.92157 15.8283 2.25 14.9998 2.25C14.1714 2.25 13.4998 2.92157 13.4998 3.75H16.4998ZM26.25 8.67857H15V11.6786H26.25V8.67857ZM3.75 11.6786H15V8.67857H3.75V11.6786ZM16.4998 10.1786V3.75H13.4998V10.1786H16.4998Z" fill="white"/>
</svg>
